<svg width="25" height="25" viewBox="0 0 25 25" fill="none" xmlns="http://www.w3.org/2000/svg">
<path d="M9.19922 4.01552C10.0117 2.65615 11.7383 2.10927 13.2031 2.79677L13.4844 2.94521C14.8438 3.76161 15.3906 5.48818 14.7031 6.95302L14.1523 8.1249H18.4375L18.7266 8.14052C20.1445 8.28505 21.25 9.48427 21.25 10.9374C21.25 11.453 21.1094 11.9296 20.8672 12.3436C21.1055 12.7577 21.2461 13.2343 21.25 13.7499C21.25 14.4647 20.9805 15.1093 20.5469 15.6054C20.5977 15.8124 20.625 16.0272 20.625 16.2499C20.625 17.2304 20.1211 18.0858 19.3672 18.5897C19.293 19.9765 18.2188 21.0976 16.8516 21.2343L16.5625 21.2499H12.4961C11.793 21.2499 11.0937 21.1171 10.4414 20.8632L10.1641 20.746L10.1367 20.7343L9.87891 20.6093L9.85156 20.5976L9.375 20.3436C8.89453 20.0897 8.46484 19.7694 8.08984 19.4022C7.92969 20.453 7.02344 21.2538 5.92969 21.2538H4.67969C3.47266 21.2538 2.49219 20.2733 2.49219 19.0663L2.5 10.3124C2.5 9.10536 3.48047 8.1249 4.6875 8.1249H5.9375C6.35938 8.1249 6.75391 8.24599 7.08984 8.45693L9.04688 4.29677L9.07031 4.2499L9.17578 4.05458L9.19922 4.01943V4.01552ZM4.6875 9.9999C4.51562 9.9999 4.375 10.1405 4.375 10.3124V19.0624C4.375 19.2343 4.51562 19.3749 4.6875 19.3749H5.9375C6.10938 19.3749 6.25 19.2343 6.25 19.0624V10.3124C6.25 10.1405 6.10938 9.9999 5.9375 9.9999H4.6875ZM12.4062 4.49208C11.8281 4.22255 11.1445 4.42958 10.8164 4.96083L10.7305 5.11708L8.51172 9.83974C8.375 10.1327 8.29687 10.4452 8.27734 10.7655L8.27344 10.9296V15.3397L8.28125 15.6483C8.375 16.9257 9.11719 18.0741 10.2617 18.6835L10.7109 18.9218L10.957 19.0429C11.4414 19.2616 11.9648 19.3749 12.4961 19.3749H16.5625L16.6562 19.371C17.1289 19.3241 17.5 18.9218 17.5 18.4374L17.4922 18.3358C17.4883 18.3007 17.4844 18.2694 17.4766 18.2343C17.3711 17.7616 17.6445 17.289 18.1016 17.1405C18.4805 17.0194 18.75 16.664 18.75 16.2499C18.75 16.0819 18.707 15.9296 18.6289 15.789C18.3828 15.3554 18.5195 14.8046 18.9414 14.539C19.207 14.371 19.3789 14.078 19.3789 13.7499C19.3789 13.4726 19.2578 13.2226 19.0586 13.0468C18.8555 12.8671 18.7383 12.6132 18.7383 12.3436C18.7383 12.0741 18.8555 11.8202 19.0586 11.6405C19.2578 11.4647 19.3789 11.2147 19.3789 10.9374L19.375 10.8436C19.332 10.4022 18.9805 10.0507 18.5391 10.0077L18.4453 10.0038H12.6836C12.3633 10.0038 12.0664 9.83974 11.8945 9.57021C11.7227 9.30068 11.6992 8.95693 11.8359 8.66786L13.0078 6.15615C13.2812 5.57021 13.0625 4.8788 12.5195 4.55458L12.4062 4.49208Z" fill="black"/>
</svg>
