<svg width="25" height="25" viewBox="0 0 25 25" fill="none" xmlns="http://www.w3.org/2000/svg">
<path d="M2 4.1933C2 3.53437 2.5454 3 3.21793 3H21.7821C22.4546 3 23 3.53437 23 4.1933C23 4.51071 22.8729 4.81205 22.6432 5.03705L15.7786 11.7549V19.8067C15.7786 20.4656 15.2332 21 14.5606 21C14.2367 21 13.9291 20.8754 13.6995 20.6504L9.50439 16.5402C9.31986 16.3594 9.21734 16.1143 9.21734 15.8571V11.7549L2.35677 5.03304C2.12712 4.81205 2 4.5067 2 4.1933ZM5.03046 4.92857L10.8987 10.6741C11.0832 10.8549 11.1857 11.1 11.1857 11.3571V15.4594L13.8102 18.0308V11.3571C13.8102 11.1 13.9127 10.8549 14.0972 10.6741L19.9613 4.92857H5.03046Z" fill="black"/>
</svg>
